  0
SECTION
  2
HEADER
  9
$ACADVER
  1
AC1009
  0
ENDSEC
  0
SECTION
  2
TABLES
  0
TABLE
  2
LAYER
  70
2
  0
LAYER
  2
Layer_0
  70
0
  62
7
  6
CONTINUOUS
  0
LAYER
  2
Layer_1
  70
0
  62
5
  6
CONTINUOUS
  0
ENDTAB
  0
ENDSEC
  0
SECTION
  2
ENTITIES
  0
CIRCLE
  5
90
  8
Layer_0
  62
7
  10
-64
  20
211.5
  30
0
  40
2
  0
CIRCLE
  5
90
  8
Layer_0
  62
7
  10
-64
  20
231.5
  30
0
  40
2
  0
CIRCLE
  5
90
  8
Layer_0
  62
7
  10
-29
  20
231.5
  30
0
  40
2
  0
CIRCLE
  5
90
  8
Layer_0
  62
7
  10
-29
  20
211.5
  30
0
  40
2
  0
CIRCLE
  5
90
  8
Layer_0
  62
7
  10
-64
  20
145.5
  30
0
  40
2
  0
CIRCLE
  5
90
  8
Layer_0
  62
7
  10
-29
  20
145.5
  30
0
  40
2
  0
CIRCLE
  5
90
  8
Layer_0
  62
7
  10
-64
  20
125.5
  30
0
  40
2
  0
CIRCLE
  5
90
  8
Layer_0
  62
7
  10
-29
  20
125.5
  30
0
  40
2
  0
CIRCLE
  5
90
  8
Layer_0
  62
7
  10
357
  20
145.5
  30
0
  40
2
  0
CIRCLE
  5
90
  8
Layer_0
  62
7
  10
392
  20
145.5
  30
0
  40
2
  0
CIRCLE
  5
90
  8
Layer_0
  62
7
  10
392
  20
125.5
  30
0
  40
2
  0
CIRCLE
  5
90
  8
Layer_0
  62
7
  10
357
  20
125.5
  30
0
  40
2
  0
CIRCLE
  5
90
  8
Layer_0
  62
7
  10
392
  20
211.5
  30
0
  40
2
  0
CIRCLE
  5
90
  8
Layer_0
  62
7
  10
392
  20
231.5
  30
0
  40
2
  0
CIRCLE
  5
90
  8
Layer_0
  62
7
  10
357
  20
231.5
  30
0
  40
2
  0
CIRCLE
  5
90
  8
Layer_0
  62
7
  10
357
  20
211.5
  30
0
  40
2
  0
POLYLINE
  5
90
  8
Layer_0
  62
7
  70
1
  66
1
  10
0
  20
0
  30
0
  0
VERTEX
  5
90
  8
Layer_0
  10
-124
  20
110
  0
VERTEX
  5
91
  8
Layer_0
  10
-124
  20
110
  0
VERTEX
  5
92
  8
Layer_0
  10
-124
  20
110
  0
SEQEND
  0
POLYLINE
  5
94
  8
Layer_0
  62
7
  70
1
  66
1
  10
0
  20
0
  30
0
  0
VERTEX
  5
94
  8
Layer_0
  10
424
  20
-207.51093
  0
VERTEX
  5
95
  8
Layer_0
  10
-96
  20
-207.51093
  0
VERTEX
  5
96
  8
Layer_0
  10
-96
  20
257.48907
  0
VERTEX
  5
97
  8
Layer_0
  10
424
  20
257.48907
  0
SEQEND
  0
POLYLINE
  5
99
  8
Layer_1
  62
5
  70
1
  66
1
  10
0
  20
0
  30
0
  0
VERTEX
  5
99
  8
Layer_1
  10
398
  20
119.5
  0
VERTEX
  5
9a
  8
Layer_1
  10
351
  20
119.5
  0
VERTEX
  5
9b
  8
Layer_1
  10
351
  20
151.5
  0
VERTEX
  5
9c
  8
Layer_1
  10
398
  20
151.5
  0
SEQEND
  0
POLYLINE
  5
9e
  8
Layer_1
  62
5
  70
1
  66
1
  10
0
  20
0
  30
0
  0
VERTEX
  5
9e
  8
Layer_1
  10
-23
  20
205.5
  0
VERTEX
  5
9f
  8
Layer_1
  10
-70
  20
205.5
  0
VERTEX
  5
a0
  8
Layer_1
  10
-70
  20
237.5
  0
VERTEX
  5
a1
  8
Layer_1
  10
-23
  20
237.5
  0
SEQEND
  0
POLYLINE
  5
a3
  8
Layer_1
  62
5
  70
1
  66
1
  10
0
  20
0
  30
0
  0
VERTEX
  5
a3
  8
Layer_1
  10
-23
  20
119.5
  0
VERTEX
  5
a4
  8
Layer_1
  10
-70
  20
119.5
  0
VERTEX
  5
a5
  8
Layer_1
  10
-70
  20
151.5
  0
VERTEX
  5
a6
  8
Layer_1
  10
-23
  20
151.5
  0
SEQEND
  0
POLYLINE
  5
a8
  8
Layer_1
  62
5
  70
1
  66
1
  10
0
  20
0
  30
0
  0
VERTEX
  5
a8
  8
Layer_1
  10
398
  20
205.5
  0
VERTEX
  5
a9
  8
Layer_1
  10
351
  20
205.5
  0
VERTEX
  5
aa
  8
Layer_1
  10
351
  20
237.5
  0
VERTEX
  5
ab
  8
Layer_1
  10
398
  20
237.5
  0
SEQEND
  0
POLYLINE
  5
ad
  8
Layer_1
  62
5
  70
1
  66
1
  10
0
  20
0
  30
0
  0
VERTEX
  5
ad
  8
Layer_1
  10
302
  20
-120.50002
  0
VERTEX
  5
ae
  8
Layer_1
  10
5
  20
-120.50002
  0
VERTEX
  5
af
  8
Layer_1
  10
5
  20
89.5
  0
VERTEX
  5
b0
  8
Layer_1
  10
302
  20
89.5
  0
SEQEND
  0
CIRCLE
  5
b2
  8
Layer_0
  62
7
  10
15.000006
  20
64.499992
  30
0
  40
5
  0
CIRCLE
  5
b2
  8
Layer_0
  62
7
  10
292
  20
79.499992
  30
0
  40
5
  0
CIRCLE
  5
b2
  8
Layer_0
  62
7
  10
15.000006
  20
-110.50001
  30
0
  40
5
  0
CIRCLE
  5
b2
  8
Layer_0
  62
7
  10
292
  20
-110.50001
  30
0
  40
5
  0
ENDSEC
  0
EOF
