  0
SECTION
  2
HEADER
  9
$ACADVER
  1
AC1009
  0
ENDSEC
  0
SECTION
  2
TABLES
  0
TABLE
  2
LAYER
  70
2
  0
LAYER
  2
Layer_0
  70
0
  62
7
  6
CONTINUOUS
  0
LAYER
  2
Layer_1
  70
0
  62
5
  6
CONTINUOUS
  0
ENDTAB
  0
ENDSEC
  0
SECTION
  2
ENTITIES
  0
POLYLINE
  5
90
  8
Layer_0
  62
7
  70
1
  66
1
  10
0
  20
0
  30
0
  0
VERTEX
  5
90
  8
Layer_0
  10
13
  20
190
  0
VERTEX
  5
91
  8
Layer_0
  10
13
  20
190
  0
VERTEX
  5
92
  8
Layer_0
  10
13
  20
190
  0
VERTEX
  5
93
  8
Layer_0
  10
13
  20
190
  0
SEQEND
  0
POLYLINE
  5
95
  8
Layer_0
  62
7
  70
1
  66
1
  10
0
  20
0
  30
0
  0
VERTEX
  5
95
  8
Layer_0
  10
560
  20
22.5
  0
VERTEX
  5
96
  8
Layer_0
  10
40
  20
22.5
  0
VERTEX
  5
97
  8
Layer_0
  10
40
  20
177.5
  0
VERTEX
  5
98
  8
Layer_0
  10
560
  20
177.5
  0
SEQEND
  0
POLYLINE
  5
9a
  8
Layer_1
  62
5
  70
1
  66
1
  10
0
  20
0
  30
0
  0
VERTEX
  5
9a
  8
Layer_1
  10
534
  20
39.500004
  0
VERTEX
  5
9b
  8
Layer_1
  10
487
  20
39.500004
  0
VERTEX
  5
9c
  8
Layer_1
  10
487
  20
71.5
  0
VERTEX
  5
9d
  8
Layer_1
  10
534
  20
71.5
  0
SEQEND
  0
POLYLINE
  5
9f
  8
Layer_1
  62
5
  70
1
  66
1
  10
0
  20
0
  30
0
  0
VERTEX
  5
9f
  8
Layer_1
  10
113
  20
125.5
  0
VERTEX
  5
a0
  8
Layer_1
  10
66
  20
125.5
  0
VERTEX
  5
a1
  8
Layer_1
  10
66
  20
157.5
  0
VERTEX
  5
a2
  8
Layer_1
  10
113
  20
157.5
  0
SEQEND
  0
POLYLINE
  5
a4
  8
Layer_1
  62
5
  70
1
  66
1
  10
0
  20
0
  30
0
  0
VERTEX
  5
a4
  8
Layer_1
  10
113
  20
39.500004
  0
VERTEX
  5
a5
  8
Layer_1
  10
66
  20
39.500004
  0
VERTEX
  5
a6
  8
Layer_1
  10
66
  20
71.5
  0
VERTEX
  5
a7
  8
Layer_1
  10
113
  20
71.5
  0
SEQEND
  0
POLYLINE
  5
a9
  8
Layer_1
  62
5
  70
1
  66
1
  10
0
  20
0
  30
0
  0
VERTEX
  5
a9
  8
Layer_1
  10
534
  20
125.5
  0
VERTEX
  5
aa
  8
Layer_1
  10
487
  20
125.5
  0
VERTEX
  5
ab
  8
Layer_1
  10
487
  20
157.5
  0
VERTEX
  5
ac
  8
Layer_1
  10
534
  20
157.5
  0
SEQEND
  0
CIRCLE
  5
ae
  8
Layer_0
  62
7
  10
72
  20
131.5
  30
0
  40
2
  0
CIRCLE
  5
ae
  8
Layer_0
  62
7
  10
72
  20
151.5
  30
0
  40
2
  0
CIRCLE
  5
ae
  8
Layer_0
  62
7
  10
107
  20
151.5
  30
0
  40
2
  0
CIRCLE
  5
ae
  8
Layer_0
  62
7
  10
107
  20
131.5
  30
0
  40
2
  0
CIRCLE
  5
ae
  8
Layer_0
  62
7
  10
72
  20
65.5
  30
0
  40
2
  0
CIRCLE
  5
ae
  8
Layer_0
  62
7
  10
107
  20
65.5
  30
0
  40
2
  0
CIRCLE
  5
ae
  8
Layer_0
  62
7
  10
72
  20
45.5
  30
0
  40
2
  0
CIRCLE
  5
ae
  8
Layer_0
  62
7
  10
107
  20
45.5
  30
0
  40
2
  0
CIRCLE
  5
ae
  8
Layer_0
  62
7
  10
493
  20
65.5
  30
0
  40
2
  0
CIRCLE
  5
ae
  8
Layer_0
  62
7
  10
528
  20
65.5
  30
0
  40
2
  0
CIRCLE
  5
ae
  8
Layer_0
  62
7
  10
528
  20
45.5
  30
0
  40
2
  0
CIRCLE
  5
ae
  8
Layer_0
  62
7
  10
493
  20
45.5
  30
0
  40
2
  0
CIRCLE
  5
ae
  8
Layer_0
  62
7
  10
528
  20
131.5
  30
0
  40
2
  0
CIRCLE
  5
ae
  8
Layer_0
  62
7
  10
528
  20
151.5
  30
0
  40
2
  0
CIRCLE
  5
ae
  8
Layer_0
  62
7
  10
493
  20
151.5
  30
0
  40
2
  0
CIRCLE
  5
ae
  8
Layer_0
  62
7
  10
493
  20
131.5
  30
0
  40
2
  0
CIRCLE
  5
ae
  8
Layer_0
  62
7
  10
51.5
  20
166
  30
0
  40
1.25
  0
CIRCLE
  5
ae
  8
Layer_0
  62
7
  10
51.5
  20
34
  30
0
  40
1.25
  0
CIRCLE
  5
ae
  8
Layer_0
  62
7
  10
548.5
  20
166
  30
0
  40
1.5
  0
CIRCLE
  5
ae
  8
Layer_0
  62
7
  10
548.5
  20
34
  30
0
  40
1.25
  0
POLYLINE
  5
ae
  8
Layer_0
  62
7
  70
1
  66
1
  10
0
  20
0
  30
0
  0
VERTEX
  5
ae
  8
Layer_0
  10
561
  20
182.5
  0
VERTEX
  5
af
  8
Layer_0
  10
41
  20
182.5
  0
VERTEX
  5
b0
  8
Layer_0
  10
41
  20
337.5
  0
VERTEX
  5
b1
  8
Layer_0
  10
561
  20
337.5
  0
SEQEND
  0
POLYLINE
  5
b3
  8
Layer_1
  62
5
  70
1
  66
1
  10
0
  20
0
  30
0
  0
VERTEX
  5
b3
  8
Layer_1
  10
535
  20
199.5
  0
VERTEX
  5
b4
  8
Layer_1
  10
488
  20
199.5
  0
VERTEX
  5
b5
  8
Layer_1
  10
488
  20
231.5
  0
VERTEX
  5
b6
  8
Layer_1
  10
535
  20
231.5
  0
SEQEND
  0
POLYLINE
  5
b8
  8
Layer_1
  62
5
  70
1
  66
1
  10
0
  20
0
  30
0
  0
VERTEX
  5
b8
  8
Layer_1
  10
114
  20
285.5
  0
VERTEX
  5
b9
  8
Layer_1
  10
67
  20
285.5
  0
VERTEX
  5
ba
  8
Layer_1
  10
67
  20
317.5
  0
VERTEX
  5
bb
  8
Layer_1
  10
114
  20
317.5
  0
SEQEND
  0
POLYLINE
  5
bd
  8
Layer_1
  62
5
  70
1
  66
1
  10
0
  20
0
  30
0
  0
VERTEX
  5
bd
  8
Layer_1
  10
114
  20
199.5
  0
VERTEX
  5
be
  8
Layer_1
  10
67
  20
199.5
  0
VERTEX
  5
bf
  8
Layer_1
  10
67
  20
231.5
  0
VERTEX
  5
c0
  8
Layer_1
  10
114
  20
231.5
  0
SEQEND
  0
POLYLINE
  5
c2
  8
Layer_1
  62
5
  70
1
  66
1
  10
0
  20
0
  30
0
  0
VERTEX
  5
c2
  8
Layer_1
  10
535
  20
285.5
  0
VERTEX
  5
c3
  8
Layer_1
  10
488
  20
285.5
  0
VERTEX
  5
c4
  8
Layer_1
  10
488
  20
317.5
  0
VERTEX
  5
c5
  8
Layer_1
  10
535
  20
317.5
  0
SEQEND
  0
CIRCLE
  5
c7
  8
Layer_0
  62
7
  10
73
  20
291.5
  30
0
  40
2
  0
CIRCLE
  5
c7
  8
Layer_0
  62
7
  10
73
  20
311.5
  30
0
  40
2
  0
CIRCLE
  5
c7
  8
Layer_0
  62
7
  10
108
  20
311.5
  30
0
  40
2
  0
CIRCLE
  5
c7
  8
Layer_0
  62
7
  10
108
  20
291.5
  30
0
  40
2
  0
CIRCLE
  5
c7
  8
Layer_0
  62
7
  10
73
  20
225.5
  30
0
  40
2
  0
CIRCLE
  5
c7
  8
Layer_0
  62
7
  10
108
  20
225.5
  30
0
  40
2
  0
CIRCLE
  5
c7
  8
Layer_0
  62
7
  10
73
  20
205.5
  30
0
  40
2
  0
CIRCLE
  5
c7
  8
Layer_0
  62
7
  10
108
  20
205.5
  30
0
  40
2
  0
CIRCLE
  5
c7
  8
Layer_0
  62
7
  10
494
  20
225.5
  30
0
  40
2
  0
CIRCLE
  5
c7
  8
Layer_0
  62
7
  10
529
  20
225.5
  30
0
  40
2
  0
CIRCLE
  5
c7
  8
Layer_0
  62
7
  10
529
  20
205.5
  30
0
  40
2
  0
CIRCLE
  5
c7
  8
Layer_0
  62
7
  10
494
  20
205.5
  30
0
  40
2
  0
CIRCLE
  5
c7
  8
Layer_0
  62
7
  10
529
  20
291.5
  30
0
  40
2
  0
CIRCLE
  5
c7
  8
Layer_0
  62
7
  10
529
  20
311.5
  30
0
  40
2
  0
CIRCLE
  5
c7
  8
Layer_0
  62
7
  10
494
  20
311.5
  30
0
  40
2
  0
CIRCLE
  5
c7
  8
Layer_0
  62
7
  10
494
  20
291.5
  30
0
  40
2
  0
CIRCLE
  5
c7
  8
Layer_0
  62
7
  10
52.5
  20
326
  30
0
  40
1.25
  0
CIRCLE
  5
c7
  8
Layer_0
  62
7
  10
52.5
  20
194
  30
0
  40
1.25
  0
CIRCLE
  5
c7
  8
Layer_0
  62
7
  10
549.5
  20
326
  30
0
  40
1.25
  0
CIRCLE
  5
c7
  8
Layer_0
  62
7
  10
549.5
  20
194
  30
0
  40
1.5
  0
ENDSEC
  0
EOF
